<svg width="90" height="40" viewBox="0 0 90 40" fill="none" xmlns="http://www.w3.org/2000/svg">
<path d="M15.4484 14.2468C13.8036 12.6501 11.8219 11.8516 9.50283 11.8516C7.17839 11.8516 5.19371 12.6501 3.54913 14.2468C1.9044 15.8385 1.08203 17.7565 1.08203 20.0008C1.08203 22.2504 1.9044 24.1709 3.54913 25.7625C5.19371 27.3542 7.17839 28.1499 9.50283 28.1499H13.7132H17.9236V20.0008C17.9236 17.7565 17.0985 15.8385 15.4484 14.2468ZM13.7132 24.0752H9.50283C8.34056 24.0752 7.34827 23.6774 6.52591 22.8817C5.70364 22.0857 5.29241 21.1256 5.29241 20.0008C5.29241 18.8813 5.70364 17.9237 6.52591 17.1277C7.34827 16.3267 8.34052 15.926 9.50283 15.926C10.6595 15.926 11.6491 16.3267 12.4715 17.1277C13.2993 17.9237 13.7133 18.8813 13.7133 20.0008V24.0752H13.7132Z" fill="#3BB1E6"/>
<path d="M24.0346 3.70215H19.8242V28.1497H24.0346V3.70215Z" fill="#3BB1E6"/>
<path d="M57.9582 14.2468C56.3135 12.6501 54.3316 11.8516 52.0125 11.8516C49.688 11.8516 47.7034 12.6501 46.0587 14.2468C44.4142 15.8385 43.5918 17.7565 43.5918 20.0007C43.5918 22.2504 44.4142 24.1709 46.0587 25.7625C47.7035 27.3542 49.688 28.1499 52.0125 28.1499V24.0754H56.2231V20.0007H52.0125V24.0752C50.8503 24.0752 49.8581 23.6773 49.0356 22.8816C48.2134 22.0857 47.8023 21.1255 47.8023 20.0007C47.8023 18.8812 48.2134 17.9236 49.0356 17.1277C49.8581 16.3266 50.8502 15.926 52.0125 15.926C53.1693 15.926 54.1589 16.3266 54.9813 17.1277C55.809 17.9236 56.2231 18.8812 56.2231 20.0007H60.4333C60.4333 17.7565 59.6082 15.8385 57.9582 14.2468Z" fill="#FAAE38"/>
<path d="M33.9051 24.0755H38.1156V20.0007H33.9051V24.0752C32.7429 24.0752 31.7507 23.6774 30.9282 22.8817C30.1059 22.0857 29.6948 21.1256 29.6948 20.0007C29.6948 18.8813 30.106 17.9237 30.9282 17.1277C31.7507 16.3267 32.7428 15.926 33.9051 15.926C35.0619 15.926 36.0514 16.3267 36.8739 17.1277C37.7017 17.9237 38.1156 18.8813 38.1156 20.0007H42.3259C42.3259 17.7565 41.5008 15.8385 39.8508 14.2468C38.2061 12.6501 36.2242 11.8516 33.9051 11.8516C31.5805 11.8516 29.596 12.6501 27.9513 14.2468C26.3067 15.8385 25.4844 17.7565 25.4844 20.0007C25.4844 22.2504 26.3067 24.1709 27.9513 25.7625C29.5961 27.3542 31.5806 28.1499 33.9051 28.1499V24.0755Z" fill="#3BB1E6"/>
<path d="M38.1151 28.1503C38.1151 29.2692 37.7026 30.2267 36.8733 31.0227C36.0507 31.8231 35.0613 32.2245 33.9051 32.2245C32.7422 32.2245 31.7529 31.8231 30.9302 31.0249L27.9531 33.906C29.5983 35.5004 31.5816 36.2985 33.9051 36.2985C36.2242 36.2985 38.2052 35.5004 39.8504 33.9038C41.5001 32.3117 42.325 30.3946 42.325 28.1503V24.0762H38.1151V28.1503Z" fill="#3BB1E6"/>
<path d="M86.4449 14.2453C84.7997 12.6489 82.8164 11.8506 80.4973 11.8506C78.487 11.8506 76.7314 12.4482 75.2305 13.6412C73.7295 12.4482 71.9784 11.8506 69.9726 11.8506C67.649 11.8506 65.6635 12.6488 64.0183 14.2453C62.3731 15.8375 61.5527 17.7568 61.5527 20.001V28.1492H65.7627V20.001C65.7627 18.8799 66.1728 17.9225 66.9954 17.1264C67.818 16.326 68.8097 15.9247 69.9726 15.9247C71.0115 15.9247 71.9153 16.2497 72.686 16.8974C72.7717 16.9672 72.8573 17.0457 72.9407 17.1264C73.7701 17.9225 74.1825 18.88 74.1825 20.001V28.1492H76.2874H78.3924V20.001C78.3924 18.8865 78.1896 17.8505 77.7794 16.8953C78.5479 16.2475 79.4562 15.9247 80.4974 15.9247C81.6558 15.9247 82.6452 16.326 83.4678 17.1264C84.2949 17.9225 84.7096 18.88 84.7096 20.001V28.1492H88.9195V20.001C88.9194 17.7568 88.0946 15.8375 86.4449 14.2453Z" fill="#FAAE38"/>
</svg>
